<svg viewBox="0 0 32 32" xml:space="preserve" xmlns="http://www.w3.org/2000/svg" enable-background="new 0 0 32 32"><path d="M9.599 30.43 6.57 27.4A1.987 1.987 0 0 1 6 26c0-.479.194-1.029.576-1.412L15.165 16 6.576 7.412A2.06 2.06 0 0 1 6 6c0-.335.092-.923.57-1.4L9.6 1.57A1.987 1.987 0 0 1 11 1a2.06 2.06 0 0 1 1.412.576l13.006 13.008c.36.361.582.864.582 1.416 0 .556-.235 1.066-.584 1.416L12.412 30.424A2.06 2.06 0 0 1 11 31a1.99 1.99 0 0 1-1.401-.57z" fill="#ffb400" class="fill-000000"></path></svg>