<svg viewBox="0 0 32 32" xml:space="preserve" xmlns="http://www.w3.org/2000/svg" enable-background="new 0 0 32 32"><path d="M25.011 6.979a8.454 8.454 0 0 0-6.017-2.492 8.456 8.456 0 0 0-6.018 2.492 8.454 8.454 0 0 0-2.492 6.017c0 2.273.885 4.41 2.492 6.017a8.452 8.452 0 0 0 6.017 2.493c2.273 0 4.41-.885 6.018-2.492 3.317-3.318 3.317-8.717 0-12.035zm-1.706 10.328a6.06 6.06 0 0 1-4.312 1.786 6.055 6.055 0 0 1-4.311-1.786 6.057 6.057 0 0 1-1.786-4.311c0-1.628.634-3.16 1.786-4.311A6.055 6.055 0 0 1 18.994 6.9c1.629 0 3.16.634 4.311 1.785a6.104 6.104 0 0 1 0 8.622zm-4.312-8.979-.314.013a4.672 4.672 0 0 0-2.996 1.344c-.651.653-1.068 1.503-1.219 2.176a3.485 3.485 0 0 0-.093.49c-.025.166-.034.28-.034.347l-.011.247a.825.825 0 0 0 1.603.31l.078-.224s.031-.089.073-.244a.694.694 0 0 1 .081-.228l.113-.243c.069-.196.211-.396.343-.606.137-.209.305-.413.498-.591.198-.171.388-.352.6-.483.22-.106.409-.263.605-.33.19-.074.354-.166.478-.196.122-.04.195-.075.195-.075l.384-.186a.8.8 0 0 0-.384-1.521zM9.945 19.626l-4.88 4.346c-.345.307-.55.747-.563 1.208-.013.461.166.913.493 1.239l.602.602a1.683 1.683 0 0 0 2.446-.071l4.346-4.879c.592-.665.563-1.679-.134-2.376-.611-.613-1.665-.643-2.31-.069z" fill="#ffb400" class="fill-000000"></path></svg>